<?xml version="1.0" encoding="UTF-8"?>
<svg id="Layer_1" xmlns="http://www.w3.org/2000/svg" version="1.1" viewBox="0 0 640 640">
  <!-- Generator: Adobe Illustrator 30.0.0, SVG Export Plug-In . SVG Version: 2.1.1 Build 123)  -->
  <defs>
    <style>
      .st0 {
        fill: #fff;
      }
    </style>
  </defs>
  <path class="st0" d="M176,96c-26.5,0-48,21.5-48,48v352c0,26.5,21.5,48,48,48h64c26.5,0,48-21.5,48-48V144c0-26.5-21.5-48-48-48h-64ZM400,96c-26.5,0-48,21.5-48,48v352c0,26.5,21.5,48,48,48h64c26.5,0,48-21.5,48-48V144c0-26.5-21.5-48-48-48h-64Z"/>
</svg>