<?xml version="1.0" encoding="UTF-8"?>
<svg id="Layer_1" xmlns="http://www.w3.org/2000/svg" version="1.1" viewBox="0 0 640 640">
  <!-- Generator: Adobe Illustrator 30.0.0, SVG Export Plug-In . SVG Version: 2.1.1 Build 123)  -->
  <defs>
    <style>
      .st0 {
        fill: #fff;
      }
    </style>
  </defs>
  <path class="st0" d="M448,96c26.5,0,48,21.5,48,48,0,6.3-1.3,12.2-3.4,17.7,20.4,5.5,35.4,24.1,35.4,46.3,0,9.1-2.6,17.6-7,24.9,22.2,4.2,39,23.7,39,47.1,0,19.7-11.9,36.6-28.9,44,17,7.4,28.9,24.3,28.9,44,0,26.5-21.5,48-48,48h-160l28.2,70.4c2.5,6.3,3.8,13.1,3.8,19.9v4.2c0,27.3-22.1,49.4-49.4,49.4-18.7,0-35.8-10.6-44.2-27.3l-56.3-112.3c-6.7-13.3-10.1-28-10.1-42.9v-186.6c0-19.4,8.9-37.8,24-50l12.2-9.7c28.4-22.7,63.6-35.1,99.9-35.1h87.9ZM144,160c17.7,0,32,14.3,32,32v256c0,17.7-14.3,32-32,32h-48c-17.7,0-32-14.3-32-32V192c0-17.7,14.3-32,32-32h48Z"/>
</svg>